<?xml version="1.0" encoding="UTF-8"?>
<svg id="Layer_1" xmlns="http://www.w3.org/2000/svg" version="1.1" viewBox="0 0 32 32">
  <!-- Generator: Adobe Illustrator 30.3.0, SVG Export Plug-In . SVG Version: 2.1.3 Build 182)  -->
  <defs>
    <style>
      .st0 {
        fill: #b7b7b7;
      }

      .st1 {
        fill: #fff;
      }
    </style>
  </defs>
  <g>
    <path class="st1" d="M30.99,13.75s0-.02,0-.03c0-.05-.01-.1-.02-.15,0,0,0-.02,0-.03-.01-.05-.03-.11-.04-.16-.09-.29-.25-.55-.46-.76-.04-.04-.09-.08-.13-.12-.04-.04-.09-.07-.14-.11h-.01s-.09-.06-.13-.09l-.05-.03s-.07-.03-.1-.05c-.05-.03-.11-.05-.16-.06-.19-.06-.39-.09-.59-.09-.05,0-.11,0-.16,0-.05,0-.11.01-.16.02s-.1.02-.15.03h0s-.08.02-.13.04c-.05.01-.09.03-.13.05-.05.02-.1.05-.15.07-.04.02-.08.04-.11.07-.07.04-.13.09-.19.14l-11.95,10.04L4.05,12.51s0,0,0,0c0,0,0,0,0,0-.05-.04-.09-.07-.14-.11-.05-.03-.1-.06-.15-.09-.05-.03-.1-.05-.15-.07-.04-.02-.09-.03-.13-.05-.04-.02-.08-.03-.13-.04h0c-.05-.01-.1-.03-.15-.03s-.1-.01-.16-.02c-.05,0-.11,0-.16,0-.2,0-.4.03-.59.09-.05.02-.11.04-.16.06-.03.01-.07.03-.1.05l-.05.03s-.07.04-.1.06c-.02,0-.04.02-.06.04-.04.03-.08.06-.12.09-.05.04-.09.08-.13.12-.04.04-.08.08-.11.12,0,0,0,0,0,.01-.04.05-.07.09-.11.14-.07.1-.13.21-.17.32-.02.04-.03.09-.05.13-.01.04-.02.07-.03.11h0c-.01.05-.03.11-.03.15h0c0,.06-.01.11-.02.16,0,.04,0,.08,0,.12,0,.01,0,.03,0,.04v17.05h11.75v-3.43H4.71v-9.64l9.83,8.26s0,.01.01.02c.66.78,1.83.89,2.61.23l10.12-8.5v9.64h-8.03v3.43h11.75V13.93c0-.06,0-.12,0-.18h0Z"/>
    <path class="st0" d="M4.71,13.93v3.98l-3.05-2.56c-.48-.4-.7-1-.65-1.58,0-.05.01-.1.02-.15h0c0-.06.02-.11.03-.16h0s.02-.08.03-.12c.01-.05.03-.09.05-.13.05-.11.1-.22.17-.32.03-.05.07-.1.11-.14,0,0,0,0,0-.01.03-.04.07-.08.11-.12.04-.04.09-.08.13-.12.04-.03.08-.06.12-.09.02-.01.04-.03.06-.04.03-.02.07-.04.1-.06l.05-.03s.06-.03.1-.05c.05-.03.11-.05.16-.06.19-.06.39-.09.59-.09.05,0,.11,0,.16,0,.05,0,.11.01.16.02s.1.02.15.03h0s.08.02.13.04c.05.01.09.03.13.05.05.02.1.05.15.07.05.03.1.06.15.09.05.03.1.07.14.11s.09.08.13.12c.34.34.55.8.55,1.31h0Z"/>
  </g>
  <path class="st1" d="M26,11.01c0,.25,0,.49-.03.73h-3.59c.03-.24.04-.48.04-.73,0-3.55-2.88-6.43-6.43-6.43s-6.43,2.88-6.43,6.43c0,.25.01.49.04.73h-3.59c-.02-.24-.03-.48-.03-.73C6,5.49,10.48,1.01,16,1.01s10,4.48,10,10Z"/>
  <path class="st1" d="M16.84,13.05l.99,3.36h-3.65l.94-3.38c-.59-.32-.99-.94-.99-1.65,0-1.03.84-1.87,1.87-1.87s1.87.84,1.87,1.87c0,.73-.42,1.37-1.03,1.67Z"/>
</svg>