<?xml version="1.0" encoding="UTF-8"?>
<svg id="Layer_1" xmlns="http://www.w3.org/2000/svg" version="1.1" viewBox="0 0 375 425">
  <!-- Generator: Adobe Illustrator 30.3.0, SVG Export Plug-In . SVG Version: 2.1.3 Build 182)  -->
  <defs>
    <style>
      .st0 {
        fill: #fbe731;
      }
    </style>
  </defs>
  <polygon class="st0" points="313.5 34.81 158.42 64.96 124.88 2.5 313.5 34.81"/>
  <polygon class="st0" points="234.12 66.2 352.57 63.12 126.11 422.5 261.5 111.73 187.65 107.73 234.12 66.2"/>
  <polygon class="st0" points="371.96 132.04 352.57 253.89 154.11 422.5 371.96 132.04"/>
  <polygon class="st0" points="30.11 156.04 62.73 156.04 62.73 158.81 38.74 185.88 30.11 177.58 30.11 156.04"/>
  <polygon class="st0" points="127.66 151.11 196.27 151.11 165.5 176.96 145.5 172.66 110.42 193.58 127.66 151.11"/>
  <polygon class="st0" points="40.88 361.88 93.5 361.88 73.5 394.81 40.88 361.88"/>
  <polygon class="st0" points="3.04 223.11 62.73 223.11 40.88 250.19 40.88 277.27 114.42 324.65 140.27 299.11 126.11 343.74 121.81 343.74 39.65 306.81 16.27 325.27 10.42 301.57 24.89 278.81 24.89 254.19 3.04 242.81 3.04 223.11"/>
</svg>