<?xml version="1.0" encoding="UTF-8"?>
<svg id="Layer_1" xmlns="http://www.w3.org/2000/svg" version="1.1" viewBox="0 0 512 512">
  <!-- Generator: Adobe Illustrator 30.3.0, SVG Export Plug-In . SVG Version: 2.1.3 Build 182)  -->
  <defs>
    <style>
      .st0 {
        fill: #b7b7b7;
      }

      .st1 {
        fill: #fff;
      }
    </style>
  </defs>
  <g>
    <path class="st1" d="M420.91,231.3s0-.25-.03-.38c-.06-.57-.16-1.1-.25-1.67,0-.09,0-.19-.09-.28-.13-.6-.28-1.16-.44-1.76-1.01-3.17-2.77-6.03-5.09-8.36-.47-.47-.94-.91-1.45-1.32-.47-.41-.97-.79-1.51-1.16l-.16-.09c-.47-.28-.94-.6-1.41-.85l-.57-.28c-.35-.22-.72-.38-1.07-.53-.6-.28-1.19-.5-1.79-.69-2.11-.69-4.27-1.04-6.47-1.04-.57,0-1.16.03-1.73.06-.6.06-1.16.13-1.73.22s-1.13.22-1.7.38h-.06c-.47.13-.91.25-1.38.44-.5.16-1.01.35-1.48.53-.57.25-1.1.53-1.63.82-.44.22-.85.47-1.26.75-.72.44-1.45.97-2.14,1.54l-131.47,110.41-131.43-110.41s-.06-.03-.09-.06c-.02-.02-.04-.03-.06-.03-.5-.41-1.04-.82-1.57-1.19-.53-.35-1.1-.69-1.67-1.01-.53-.28-1.07-.57-1.63-.82-.47-.19-.97-.38-1.48-.53-.47-.19-.91-.31-1.38-.44h-.06c-.57-.16-1.13-.28-1.7-.38s-1.13-.16-1.73-.22c-.57-.03-1.16-.06-1.73-.06-2.2,0-4.37.35-6.47,1.04-.6.19-1.19.41-1.79.69-.38.16-.72.31-1.07.53l-.6.31c-.38.19-.75.41-1.13.66-.22.09-.44.25-.63.41-.44.31-.88.66-1.32,1.01-.5.41-.97.85-1.45,1.32-.47.41-.85.85-1.23,1.29-.03.06-.09.09-.09.16-.41.5-.82,1.04-1.19,1.57-.75,1.1-1.38,2.26-1.89,3.49-.19.47-.38.94-.53,1.45-.16.41-.25.82-.38,1.23v.06c-.16.53-.28,1.1-.38,1.63v.13c-.09.57-.16,1.1-.22,1.67-.03.44-.06.85-.06,1.29-.03.16-.03.31-.03.47v187.57h129.23v-37.71h-88.38v-106.04l108.08,90.83s.09.13.16.19c7.23,8.61,20.18,9.74,28.76,2.51l111.29-93.5v106.01h-88.38v37.71h129.23v-187.6c0-.66,0-1.32-.09-1.95h0Z"/>
    <path class="st0" d="M131.86,233.28v43.81l-33.57-28.19c-5.28-4.4-7.73-11-7.2-17.38.06-.57.13-1.1.22-1.67v-.13c.09-.53.22-1.1.38-1.63v-.06c.13-.41.22-.82.38-1.23.16-.5.35-.97.53-1.45.5-1.23,1.13-2.39,1.89-3.49.38-.53.79-1.07,1.19-1.57,0-.06.06-.09.09-.16.38-.44.75-.88,1.23-1.29.47-.47.94-.91,1.45-1.32.44-.35.88-.69,1.32-1.01.19-.16.41-.31.63-.41.38-.25.75-.47,1.13-.66l.6-.31c.35-.22.69-.38,1.07-.53.6-.28,1.19-.5,1.79-.69,2.11-.69,4.27-1.04,6.47-1.04.57,0,1.16.03,1.73.06.6.06,1.16.13,1.73.22s1.13.22,1.7.38h.06c.47.13.91.25,1.38.44.5.16,1.01.35,1.48.53.57.25,1.1.53,1.63.82.57.31,1.13.66,1.67,1.01.53.38,1.07.79,1.57,1.19s.97.85,1.45,1.32c3.71,3.71,6,8.8,6,14.43h0Z"/>
  </g>
  <path class="st1" d="M366,201.16c0,2.7-.09,5.34-.28,7.98h-39.47c.31-2.61.47-5.28.47-7.98,0-39.07-31.65-70.71-70.71-70.71s-70.71,31.65-70.71,70.71c0,2.7.16,5.37.47,7.98h-39.47c-.19-2.64-.28-5.28-.28-7.98,0-60.75,49.25-110,110-110s110,49.25,110,110Z"/>
  <path class="st1" d="M265.24,223.6l10.84,36.96h-40.2l10.34-37.21c-6.44-3.49-10.84-10.31-10.84-18.17,0-11.38,9.24-20.62,20.62-20.62s20.62,9.24,20.62,20.62c0,8.05-4.62,15.02-11.38,18.42Z"/>
</svg>