<?xml version="1.0" encoding="UTF-8"?>
<svg id="Layer_1" xmlns="http://www.w3.org/2000/svg" version="1.1" viewBox="0 0 240 240">
  <!-- Generator: Adobe Illustrator 30.3.0, SVG Export Plug-In . SVG Version: 2.1.3 Build 182)  -->
  <defs>
    <style>
      .st0 {
        fill: #b7b7b7;
      }

      .st1 {
        fill: #fff;
      }
    </style>
  </defs>
  <g>
    <path class="st1" d="M237.43,102.41s0-.18-.02-.27c-.04-.4-.11-.78-.18-1.19,0-.07,0-.13-.07-.2-.09-.43-.2-.83-.31-1.25-.72-2.26-1.97-4.3-3.63-5.95-.34-.34-.67-.65-1.03-.94-.34-.29-.69-.56-1.07-.83l-.11-.07c-.34-.2-.67-.43-1.01-.6l-.4-.2c-.25-.16-.51-.27-.76-.38-.43-.2-.85-.36-1.28-.49-1.5-.49-3.04-.74-4.61-.74-.4,0-.83.02-1.23.04-.43.04-.83.09-1.23.16s-.81.16-1.21.27h-.04c-.34.09-.65.18-.98.31-.36.11-.72.25-1.05.38-.4.18-.78.38-1.16.58-.31.16-.6.34-.9.54-.51.31-1.03.69-1.52,1.1l-93.62,78.62L26.4,92.67s-.04-.02-.07-.04c-.02-.01-.03-.02-.04-.02-.36-.29-.74-.58-1.12-.85-.38-.25-.78-.49-1.19-.72-.38-.2-.76-.4-1.16-.58-.34-.13-.69-.27-1.05-.38-.34-.13-.65-.22-.98-.31h-.04c-.4-.11-.81-.2-1.21-.27s-.81-.11-1.23-.16c-.4-.02-.83-.04-1.23-.04-1.57,0-3.11.25-4.61.74-.43.13-.85.29-1.28.49-.27.11-.51.22-.76.38l-.43.22c-.27.13-.54.29-.81.47-.16.07-.31.18-.45.29-.31.22-.63.47-.94.72-.36.29-.69.6-1.03.94-.34.29-.6.6-.87.92-.02.04-.07.07-.07.11-.29.36-.58.74-.85,1.12-.54.78-.98,1.61-1.34,2.48-.13.34-.27.67-.38,1.03-.11.29-.18.58-.27.87v.04c-.11.38-.2.78-.27,1.16v.09c-.07.4-.11.78-.16,1.19-.02.31-.04.6-.04.92-.02.11-.02.22-.02.34v133.57h92.03v-26.86H31.6v-75.51l76.97,64.68s.07.09.11.13c5.15,6.13,14.37,6.94,20.48,1.79l79.25-66.58v75.49h-62.94v26.86h92.03V103.8c0-.47,0-.94-.07-1.39h0Z"/>
    <path class="st0" d="M31.6,103.82v31.2l-23.9-20.08c-3.76-3.13-5.51-7.83-5.13-12.38.04-.4.09-.78.16-1.19v-.09c.07-.38.16-.78.27-1.16v-.04c.09-.29.16-.58.27-.87.11-.36.25-.69.38-1.03.36-.87.81-1.7,1.34-2.48.27-.38.56-.76.85-1.12,0-.04.04-.07.07-.11.27-.31.54-.63.87-.92.34-.34.67-.65,1.03-.94.31-.25.63-.49.94-.72.13-.11.29-.22.45-.29.27-.18.54-.34.81-.47l.43-.22c.25-.16.49-.27.76-.38.43-.2.85-.36,1.28-.49,1.5-.49,3.04-.74,4.61-.74.4,0,.83.02,1.23.04.43.04.83.09,1.23.16s.81.16,1.21.27h.04c.34.09.65.18.98.31.36.11.72.25,1.05.38.4.18.78.38,1.16.58.4.22.81.47,1.19.72.38.27.76.56,1.12.85s.69.6,1.03.94c2.64,2.64,4.27,6.27,4.27,10.27h0Z"/>
  </g>
  <path class="st1" d="M198.33,80.95c0,1.92-.07,3.8-.2,5.68h-28.11c.22-1.86.34-3.76.34-5.68,0-27.82-22.54-50.36-50.36-50.36s-50.36,22.54-50.36,50.36c0,1.92.11,3.83.34,5.68h-28.11c-.13-1.88-.2-3.76-.2-5.68C41.67,37.68,76.74,2.61,120,2.61s78.33,35.07,78.33,78.33Z"/>
  <path class="st1" d="M126.58,96.93l7.72,26.32h-28.63l7.36-26.5c-4.59-2.48-7.72-7.34-7.72-12.94,0-8.1,6.58-14.68,14.68-14.68s14.68,6.58,14.68,14.68c0,5.73-3.29,10.7-8.1,13.12Z"/>
</svg>