<?xml version="1.0" encoding="UTF-8"?>
<svg id="Layer_1" xmlns="http://www.w3.org/2000/svg" version="1.1" viewBox="0 0 1200 630">
  <!-- Generator: Adobe Illustrator 30.3.0, SVG Export Plug-In . SVG Version: 2.1.3 Build 182)  -->
  <defs>
    <style>
      .st0 {
        font-family: Arial-ItalicMT, Arial;
        font-size: 60px;
        font-style: italic;
      }

      .st0, .st1 {
        fill: #f5c942;
      }

      .st2 {
        fill: #2b283a;
      }

      .st3 {
        fill: #e41d56;
      }

      .st4 {
        fill: #eae9e8;
        font-family: ArialMT, Arial;
        font-size: 16px;
      }

      .st5 {
        fill: #fff;
      }
    </style>
  </defs>
  <rect class="st2" x=".45" y="-.24" width="1200" height="630"/>
  <g>
    <g>
      <path class="st5" d="M249.95,152.2s0-.13-.01-.2c-.03-.29-.08-.56-.13-.86,0-.05,0-.09-.05-.14-.07-.31-.14-.6-.22-.9-.52-1.63-1.43-3.11-2.63-4.3-.25-.25-.48-.47-.75-.68-.25-.21-.5-.41-.77-.6l-.08-.05c-.25-.14-.48-.31-.73-.43l-.29-.14c-.18-.12-.37-.2-.55-.27-.31-.14-.61-.26-.93-.35-1.09-.35-2.2-.54-3.33-.54-.29,0-.6.01-.89.03-.31.03-.6.07-.89.12s-.59.12-.88.2h-.03c-.25.07-.47.13-.71.22-.26.08-.52.18-.76.27-.29.13-.56.27-.84.42-.22.12-.43.25-.65.39-.37.22-.75.5-1.1.8l-67.73,56.87-67.72-56.88s-.03-.01-.05-.03c-.01,0-.02-.01-.03-.01-.26-.21-.54-.42-.81-.61-.27-.18-.56-.35-.86-.52-.27-.14-.55-.29-.84-.42-.25-.09-.5-.2-.76-.27-.25-.09-.47-.16-.71-.22h-.03c-.29-.08-.59-.14-.88-.2s-.59-.08-.89-.12c-.29-.01-.6-.03-.89-.03-1.14,0-2.25.18-3.33.54-.31.09-.61.21-.93.35-.2.08-.37.16-.55.27l-.31.16c-.2.09-.39.21-.59.34-.12.05-.22.13-.33.21-.22.16-.46.34-.68.52-.26.21-.5.43-.75.68-.25.21-.43.43-.63.67-.01.03-.05.05-.05.08-.21.26-.42.54-.61.81-.39.56-.71,1.16-.97,1.79-.09.25-.2.48-.27.75-.08.21-.13.42-.2.63v.03c-.08.27-.14.56-.2.84v.07c-.05.29-.08.56-.12.86-.01.22-.03.43-.03.67-.01.08-.01.16-.01.25v96.63h66.57v-19.43h-45.52v-54.62l55.68,46.79s.05.07.08.09c3.73,4.43,10.4,5.02,14.82,1.29l57.33-48.16v54.61h-45.53v19.43h66.57v-96.64c0-.34,0-.68-.05-1.01h0Z"/>
      <path class="st3" d="M101.05,153.22v22.57l-17.29-14.53c-2.72-2.26-3.99-5.66-3.71-8.96.03-.29.07-.56.12-.86v-.07c.05-.27.12-.56.2-.84v-.03c.07-.21.12-.42.2-.63.08-.26.18-.5.27-.75.26-.63.59-1.23.97-1.79.2-.27.41-.55.61-.81,0-.03.03-.05.05-.08.2-.22.39-.46.63-.67.25-.25.48-.47.75-.68.22-.18.46-.35.68-.52.09-.08.21-.16.33-.21.2-.13.39-.25.59-.34l.31-.16c.18-.12.35-.2.55-.27.31-.14.61-.26.93-.35,1.09-.35,2.2-.54,3.33-.54.29,0,.6.01.89.03.31.03.6.07.89.12s.59.12.88.2h.03c.25.07.47.13.71.22.26.08.52.18.76.27.29.13.56.27.84.42.29.16.59.34.86.52.27.2.55.41.81.61s.5.43.75.68c1.91,1.91,3.09,4.54,3.09,7.43h0Z"/>
    </g>
    <path class="st5" d="M221.66,136.67c0,1.39-.05,2.75-.14,4.11h-20.33c.16-1.35.25-2.72.25-4.11,0-20.13-16.31-36.43-36.43-36.43s-36.43,16.31-36.43,36.43c0,1.39.08,2.77.25,4.11h-20.33c-.09-1.36-.14-2.72-.14-4.11,0-31.3,25.37-56.67,56.66-56.67s56.66,25.37,56.66,56.66h0Z"/>
    <path class="st5" d="M169.77,148.23l5.58,19.04h-20.71l5.32-19.17c-3.32-1.79-5.58-5.31-5.58-9.36,0-5.86,4.76-10.62,10.62-10.62s10.62,4.76,10.62,10.62c0,4.15-2.38,7.74-5.86,9.49h0Z"/>
  </g>
  <g>
    <path class="st5" d="M282.99,318.39v-42.95h5.68v37.88h21.15v5.07h-26.84Z"/>
    <path class="st5" d="M313.96,302.83c0-5.76,1.6-10.03,4.8-12.8,2.68-2.3,5.94-3.46,9.79-3.46,4.28,0,7.77,1.4,10.49,4.2,2.71,2.8,4.07,6.67,4.07,11.62,0,4-.6,7.15-1.8,9.45s-2.95,4.08-5.24,5.35c-2.3,1.27-4.8,1.9-7.51,1.9-4.36,0-7.88-1.4-10.56-4.19-2.69-2.79-4.03-6.82-4.03-12.07ZM319.38,302.83c0,3.98.87,6.97,2.61,8.95,1.74,1.98,3.93,2.97,6.56,2.97s4.79-1,6.53-2.99c1.74-1.99,2.61-5.03,2.61-9.11,0-3.85-.87-6.76-2.62-8.75-1.75-1.98-3.92-2.97-6.52-2.97s-4.82.99-6.56,2.96c-1.74,1.97-2.61,4.95-2.61,8.94Z"/>
    <path class="st5" d="M347.33,302.83c0-5.76,1.6-10.03,4.8-12.8,2.68-2.3,5.94-3.46,9.79-3.46,4.28,0,7.77,1.4,10.49,4.2,2.71,2.8,4.07,6.67,4.07,11.62,0,4-.6,7.15-1.8,9.45s-2.95,4.08-5.24,5.35c-2.3,1.27-4.8,1.9-7.51,1.9-4.36,0-7.88-1.4-10.56-4.19-2.69-2.79-4.03-6.82-4.03-12.07ZM352.75,302.83c0,3.98.87,6.97,2.61,8.95,1.74,1.98,3.93,2.97,6.56,2.97s4.79-1,6.53-2.99c1.74-1.99,2.61-5.03,2.61-9.11,0-3.85-.87-6.76-2.62-8.75-1.75-1.98-3.92-2.97-6.52-2.97s-4.82.99-6.56,2.96c-1.74,1.97-2.61,4.95-2.61,8.94Z"/>
    <path class="st5" d="M382.69,318.39v-42.95h5.27v24.49l12.48-12.66h6.83l-11.89,11.54,13.1,19.57h-6.5l-10.28-15.91-3.72,3.57v12.33h-5.27Z"/>
    <path class="st5" d="M449.72,318.39v-4.57c-2.42,3.52-5.71,5.27-9.87,5.27-1.84,0-3.55-.35-5.14-1.05-1.59-.7-2.77-1.59-3.54-2.65-.77-1.06-1.31-2.37-1.63-3.91-.22-1.04-.32-2.68-.32-4.92v-19.28h5.27v17.26c0,2.75.11,4.61.32,5.57.33,1.39,1.04,2.48,2.11,3.27,1.07.79,2.4,1.19,3.98,1.19s3.07-.41,4.45-1.22c1.39-.81,2.37-1.91,2.94-3.31.58-1.4.86-3.42.86-6.08v-16.67h5.27v31.11h-4.72Z"/>
    <path class="st5" d="M462.7,330.31v-43.04h4.8v4.04c1.13-1.58,2.41-2.77,3.84-3.56,1.43-.79,3.15-1.19,5.19-1.19,2.66,0,5,.68,7.03,2.05,2.03,1.37,3.56,3.3,4.6,5.79,1.04,2.49,1.55,5.22,1.55,8.19,0,3.18-.57,6.05-1.71,8.6s-2.8,4.5-4.98,5.86c-2.18,1.36-4.47,2.04-6.87,2.04-1.76,0-3.34-.37-4.73-1.11-1.4-.74-2.54-1.68-3.44-2.81v15.15h-5.27ZM467.48,303.01c0,4,.81,6.96,2.43,8.88,1.62,1.91,3.58,2.87,5.89,2.87s4.35-.99,6.02-2.97,2.5-5.05,2.5-9.21-.82-6.93-2.45-8.91c-1.63-1.97-3.58-2.96-5.84-2.96s-4.23,1.05-5.96,3.15-2.59,5.15-2.59,9.16Z"/>
    <path class="st5" d="M533.04,314.55c-1.95,1.66-3.83,2.83-5.64,3.52-1.81.68-3.75,1.03-5.82,1.03-3.42,0-6.05-.83-7.88-2.5-1.84-1.67-2.75-3.8-2.75-6.4,0-1.52.35-2.92,1.04-4.17.69-1.26,1.6-2.27,2.72-3.03,1.12-.76,2.39-1.34,3.79-1.73,1.04-.27,2.6-.54,4.69-.79,4.26-.51,7.39-1.11,9.4-1.82.02-.72.03-1.18.03-1.38,0-2.15-.5-3.66-1.49-4.54-1.35-1.19-3.35-1.79-6.01-1.79-2.48,0-4.31.43-5.49,1.3-1.18.87-2.06,2.41-2.62,4.61l-5.16-.7c.47-2.21,1.24-3.99,2.31-5.35,1.07-1.36,2.63-2.4,4.66-3.13,2.03-.73,4.38-1.1,7.06-1.1s4.81.31,6.47.94c1.66.62,2.88,1.41,3.66,2.36.78.95,1.33,2.14,1.64,3.59.18.9.26,2.52.26,4.86v7.03c0,4.9.11,8,.34,9.3.22,1.3.67,2.54,1.33,3.74h-5.51c-.55-1.09-.9-2.37-1.05-3.84ZM532.6,302.77c-1.91.78-4.79,1.45-8.61,1.99-2.17.31-3.7.66-4.6,1.05-.9.39-1.59.96-2.08,1.71-.49.75-.73,1.59-.73,2.5,0,1.41.53,2.58,1.6,3.52,1.06.94,2.62,1.41,4.67,1.41s3.84-.44,5.42-1.33,2.74-2.1,3.49-3.65c.57-1.19.85-2.95.85-5.27v-1.93Z"/>
    <path class="st5" d="M546.11,318.39v-31.11h4.75v4.42c2.29-3.42,5.59-5.13,9.9-5.13,1.88,0,3.6.34,5.17,1.01,1.57.67,2.75,1.56,3.53,2.65.78,1.09,1.33,2.39,1.64,3.9.19.98.29,2.69.29,5.13v19.13h-5.27v-18.93c0-2.15-.21-3.75-.62-4.82s-1.14-1.91-2.18-2.55c-1.04-.63-2.27-.95-3.68-.95-2.25,0-4.19.71-5.82,2.14-1.63,1.43-2.45,4.13-2.45,8.12v16.99h-5.27Z"/>
    <path class="st5" d="M579.24,330.37l-.59-4.95c1.15.31,2.16.47,3.02.47,1.17,0,2.11-.2,2.81-.59s1.28-.94,1.73-1.64c.33-.53.87-1.84,1.61-3.93.1-.29.25-.72.47-1.29l-11.81-31.17h5.68l6.47,18.02c.84,2.29,1.59,4.69,2.26,7.21.6-2.42,1.33-4.79,2.17-7.09l6.65-18.13h5.27l-11.84,31.64c-1.27,3.42-2.26,5.77-2.96,7.06-.94,1.74-2.01,3.01-3.22,3.82-1.21.81-2.66,1.22-4.34,1.22-1.02,0-2.15-.21-3.4-.64Z"/>
    <path class="st5" d="M646.33,318.39v-3.93c-1.97,3.09-4.87,4.63-8.7,4.63-2.48,0-4.76-.68-6.84-2.05s-3.69-3.28-4.83-5.73-1.71-5.27-1.71-8.45.52-5.92,1.55-8.45c1.04-2.53,2.59-4.47,4.66-5.82,2.07-1.35,4.38-2.02,6.94-2.02,1.88,0,3.54.4,5.01,1.19s2.66,1.82,3.57,3.09v-15.41h5.24v42.95h-4.89ZM629.66,302.86c0,3.98.84,6.96,2.52,8.94,1.68,1.97,3.66,2.96,5.95,2.96s4.26-.94,5.87-2.83,2.42-4.76,2.42-8.63c0-4.26-.82-7.38-2.46-9.38s-3.66-2.99-6.06-2.99-4.3.96-5.87,2.87c-1.57,1.91-2.36,4.93-2.36,9.05Z"/>
    <path class="st5" d="M657.55,302.83c0-5.76,1.6-10.03,4.8-12.8,2.68-2.3,5.94-3.46,9.79-3.46,4.28,0,7.77,1.4,10.49,4.2,2.71,2.8,4.07,6.67,4.07,11.62,0,4-.6,7.15-1.8,9.45s-2.95,4.08-5.24,5.35c-2.3,1.27-4.8,1.9-7.51,1.9-4.36,0-7.88-1.4-10.56-4.19-2.69-2.79-4.03-6.82-4.03-12.07ZM662.97,302.83c0,3.98.87,6.97,2.61,8.95,1.74,1.98,3.93,2.97,6.56,2.97s4.79-1,6.53-2.99c1.74-1.99,2.61-5.03,2.61-9.11,0-3.85-.87-6.76-2.62-8.75-1.75-1.98-3.92-2.97-6.52-2.97s-4.82.99-6.56,2.96c-1.74,1.97-2.61,4.95-2.61,8.94Z"/>
    <path class="st5" d="M692.89,318.39v-31.11h4.72v4.37c.98-1.52,2.27-2.75,3.9-3.68,1.62-.93,3.47-1.39,5.54-1.39,2.3,0,4.19.48,5.67,1.44s2.51,2.29,3.12,4.01c2.46-3.63,5.66-5.45,9.61-5.45,3.09,0,5.46.85,7.12,2.56s2.49,4.34,2.49,7.9v21.36h-5.24v-19.6c0-2.11-.17-3.63-.51-4.56s-.96-1.67-1.86-2.24-1.95-.85-3.16-.85c-2.19,0-4,.73-5.45,2.18s-2.17,3.78-2.17,6.99v18.08h-5.27v-20.21c0-2.34-.43-4.1-1.29-5.27s-2.27-1.76-4.22-1.76c-1.48,0-2.86.39-4.12,1.17s-2.17,1.92-2.74,3.43c-.57,1.5-.85,3.67-.85,6.5v16.14h-5.27Z"/>
    <path class="st5" d="M763.17,314.55c-1.95,1.66-3.83,2.83-5.64,3.52s-3.75,1.03-5.82,1.03c-3.42,0-6.04-.83-7.88-2.5s-2.75-3.8-2.75-6.4c0-1.52.35-2.92,1.04-4.17s1.6-2.27,2.72-3.03,2.39-1.34,3.79-1.73c1.04-.27,2.6-.54,4.69-.79,4.26-.51,7.39-1.11,9.4-1.82.02-.72.03-1.18.03-1.38,0-2.15-.5-3.66-1.49-4.54-1.35-1.19-3.35-1.79-6.01-1.79-2.48,0-4.31.43-5.49,1.3s-2.06,2.41-2.62,4.61l-5.16-.7c.47-2.21,1.24-3.99,2.31-5.35s2.63-2.4,4.66-3.13,4.38-1.1,7.06-1.1,4.81.31,6.47.94,2.88,1.41,3.66,2.36,1.33,2.14,1.64,3.59c.18.9.26,2.52.26,4.86v7.03c0,4.9.11,8,.34,9.3s.67,2.54,1.33,3.74h-5.51c-.55-1.09-.9-2.37-1.05-3.84ZM762.73,302.77c-1.91.78-4.79,1.45-8.61,1.99-2.17.31-3.7.66-4.6,1.05s-1.59.96-2.08,1.71-.73,1.59-.73,2.5c0,1.41.53,2.58,1.6,3.52s2.62,1.41,4.67,1.41,3.84-.44,5.42-1.33,2.74-2.1,3.49-3.65c.57-1.19.85-2.95.85-5.27v-1.93Z"/>
    <path class="st5" d="M776.26,281.5v-6.06h5.27v6.06h-5.27ZM776.26,318.39v-31.11h5.27v31.11h-5.27Z"/>
    <path class="st5" d="M789.57,318.39v-31.11h4.75v4.42c2.29-3.42,5.59-5.13,9.9-5.13,1.88,0,3.6.34,5.17,1.01s2.75,1.56,3.53,2.65,1.33,2.39,1.64,3.9c.2.98.29,2.69.29,5.13v19.13h-5.27v-18.93c0-2.15-.21-3.75-.62-4.82s-1.14-1.91-2.18-2.55-2.27-.95-3.68-.95c-2.25,0-4.18.71-5.82,2.14s-2.45,4.13-2.45,8.12v16.99h-5.27Z"/>
    <path class="st5" d="M822.61,281.12v-6.12h5.65v4.83c0,2.62-.3,4.5-.91,5.65-.84,1.58-2.15,2.77-3.93,3.57l-1.29-2.08c1.05-.43,1.84-1.11,2.36-2.04s.81-2.2.86-3.82h-2.75Z"/>
    <path class="st5" d="M833.07,309.1l5.21-.82c.29,2.09,1.11,3.69,2.45,4.8s3.21,1.67,5.61,1.67,4.22-.49,5.39-1.48,1.76-2.14,1.76-3.47c0-1.19-.52-2.13-1.55-2.81-.72-.47-2.52-1.06-5.39-1.79-3.87-.98-6.55-1.82-8.04-2.53s-2.63-1.7-3.4-2.96-1.16-2.65-1.16-4.17c0-1.39.32-2.67.95-3.85s1.5-2.16,2.59-2.94c.82-.61,1.94-1.12,3.35-1.54s2.93-.63,4.56-.63c2.44,0,4.58.35,6.43,1.05s3.21,1.66,4.09,2.86,1.48,2.81,1.82,4.82l-5.16.7c-.23-1.6-.91-2.85-2.04-3.75s-2.71-1.35-4.76-1.35c-2.42,0-4.15.4-5.19,1.2s-1.55,1.74-1.55,2.81c0,.68.21,1.3.64,1.85.43.57,1.1,1.04,2.02,1.41.53.2,2.08.64,4.66,1.35,3.73,1,6.33,1.81,7.81,2.45s2.63,1.56,3.47,2.77,1.26,2.71,1.26,4.51-.51,3.41-1.54,4.97-2.5,2.75-4.44,3.6-4.12,1.27-6.56,1.27c-4.04,0-7.12-.84-9.24-2.52s-3.47-4.17-4.06-7.47Z"/>
    <path class="st5" d="M384.04,390.39v-6.01h6.01v6.01c0,2.21-.39,3.99-1.17,5.35-.78,1.36-2.02,2.41-3.72,3.15l-1.46-2.26c1.11-.49,1.93-1.21,2.46-2.15s.82-2.31.88-4.09h-2.99Z"/>
    <path class="st5" d="M416,390.39v-42.95h5.27v15.41c2.46-2.85,5.57-4.28,9.32-4.28,2.3,0,4.31.45,6.01,1.36s2.92,2.16,3.65,3.76,1.1,3.93,1.1,6.97v19.72h-5.27v-19.72c0-2.64-.57-4.56-1.71-5.76s-2.76-1.8-4.85-1.8c-1.56,0-3.03.41-4.41,1.22s-2.36,1.91-2.94,3.3-.88,3.3-.88,5.74v17.02h-5.27Z"/>
    <path class="st5" d="M470.67,380.37l5.45.67c-.86,3.18-2.45,5.65-4.78,7.41-2.32,1.76-5.29,2.64-8.91,2.64-4.55,0-8.16-1.4-10.83-4.2s-4-6.73-4-11.79,1.35-9.3,4.04-12.19,6.19-4.34,10.49-4.34,7.56,1.42,10.2,4.25,3.96,6.82,3.96,11.95c0,.31-.01.78-.03,1.41h-23.2c.19,3.42,1.16,6.04,2.9,7.85,1.74,1.82,3.91,2.72,6.5,2.72,1.93,0,3.58-.51,4.95-1.52,1.37-1.02,2.45-2.64,3.25-4.86ZM453.35,371.84h17.37c-.23-2.62-.9-4.58-1.99-5.89-1.68-2.03-3.86-3.05-6.53-3.05-2.42,0-4.46.81-6.11,2.43-1.65,1.62-2.56,3.79-2.74,6.5Z"/>
    <path class="st5" d="M503.04,386.55c-1.95,1.66-3.83,2.83-5.64,3.52-1.81.68-3.75,1.03-5.82,1.03-3.42,0-6.05-.83-7.88-2.5-1.84-1.67-2.75-3.8-2.75-6.4,0-1.52.35-2.92,1.04-4.17.69-1.26,1.6-2.27,2.72-3.03,1.12-.76,2.39-1.34,3.79-1.73,1.04-.27,2.6-.54,4.69-.79,4.26-.51,7.39-1.11,9.4-1.82.02-.72.03-1.18.03-1.38,0-2.15-.5-3.66-1.49-4.54-1.35-1.19-3.35-1.79-6.01-1.79-2.48,0-4.31.43-5.49,1.3-1.18.87-2.06,2.41-2.62,4.61l-5.16-.7c.47-2.21,1.24-3.99,2.31-5.35,1.07-1.36,2.63-2.4,4.66-3.13,2.03-.73,4.38-1.1,7.06-1.1s4.81.31,6.47.94c1.66.62,2.88,1.41,3.66,2.36.78.95,1.33,2.14,1.64,3.59.18.9.26,2.52.26,4.86v7.03c0,4.9.11,8,.34,9.3.22,1.3.67,2.54,1.33,3.74h-5.51c-.55-1.09-.9-2.37-1.05-3.84ZM502.6,374.77c-1.91.78-4.79,1.45-8.61,1.99-2.17.31-3.7.66-4.6,1.05-.9.39-1.59.96-2.08,1.71-.49.75-.73,1.59-.73,2.5,0,1.41.53,2.58,1.6,3.52,1.06.94,2.62,1.41,4.67,1.41s3.84-.44,5.42-1.33,2.74-2.1,3.49-3.65c.57-1.19.85-2.95.85-5.27v-1.93Z"/>
    <path class="st5" d="M515.99,390.39v-42.95h5.27v42.95h-5.27Z"/>
    <path class="st5" d="M540.95,385.67l.76,4.66c-1.48.31-2.81.47-3.98.47-1.91,0-3.4-.3-4.45-.91s-1.8-1.4-2.23-2.39c-.43-.99-.64-3.06-.64-6.23v-17.9h-3.87v-4.1h3.87v-7.71l5.24-3.16v10.87h5.3v4.1h-5.3v18.19c0,1.5.09,2.47.28,2.9.19.43.49.77.91,1.03.42.25,1.02.38,1.8.38.59,0,1.36-.07,2.31-.21Z"/>
    <path class="st5" d="M546.11,390.39v-42.95h5.27v15.41c2.46-2.85,5.57-4.28,9.32-4.28,2.3,0,4.31.45,6.01,1.36s2.92,2.16,3.65,3.76,1.1,3.93,1.1,6.97v19.72h-5.27v-19.72c0-2.64-.57-4.56-1.71-5.76s-2.76-1.8-4.85-1.8c-1.56,0-3.03.41-4.41,1.22s-2.36,1.91-2.94,3.3-.88,3.3-.88,5.74v17.02h-5.27Z"/>
    <path class="st5" d="M620.7,385.32c-1.74,1.93-3.63,3.38-5.68,4.35s-4.27,1.45-6.65,1.45c-4.39,0-7.88-1.48-10.46-4.45-2.09-2.42-3.13-5.13-3.13-8.12,0-2.66.85-5.05,2.56-7.19,1.71-2.14,4.26-4.02,7.66-5.64-1.93-2.23-3.22-4.03-3.87-5.42s-.97-2.72-.97-4.01c0-2.58,1.01-4.82,3.03-6.72s4.57-2.86,7.63-2.86,5.33.9,7.19,2.7c1.86,1.8,2.8,3.96,2.8,6.47,0,4.08-2.71,7.57-8.12,10.46l7.71,9.81c.88-1.72,1.56-3.71,2.05-5.98l5.48,1.17c-.94,3.75-2.21,6.84-3.81,9.26,1.97,2.62,4.21,4.81,6.71,6.59l-3.54,4.19c-2.13-1.37-4.33-3.39-6.59-6.06ZM617.39,381.16l-9.67-11.98c-2.85,1.7-4.78,3.28-5.77,4.73s-1.49,2.9-1.49,4.32c0,1.74.69,3.54,2.08,5.42,1.39,1.88,3.35,2.81,5.89,2.81,1.58,0,3.22-.49,4.91-1.48,1.69-.99,3.04-2.26,4.06-3.82ZM609.98,362.94c2.29-1.35,3.76-2.53,4.44-3.54s1.01-2.14,1.01-3.37c0-1.46-.46-2.66-1.39-3.59-.93-.93-2.08-1.39-3.47-1.39s-2.61.46-3.56,1.38c-.95.92-1.42,2.04-1.42,3.37,0,.66.17,1.36.51,2.09.34.73.85,1.51,1.54,2.33l2.34,2.72Z"/>
    <path class="st5" d="M664.35,385.67l.76,4.66c-1.48.31-2.81.47-3.98.47-1.91,0-3.4-.3-4.45-.91s-1.8-1.4-2.23-2.39c-.43-.99-.64-3.06-.64-6.23v-17.9h-3.87v-4.1h3.87v-7.71l5.24-3.16v10.87h5.3v4.1h-5.3v18.19c0,1.5.09,2.47.28,2.9.19.43.49.77.91,1.03.42.25,1.02.38,1.8.38.59,0,1.36-.07,2.31-.21Z"/>
    <path class="st5" d="M690.81,380.37l5.45.67c-.86,3.18-2.45,5.65-4.78,7.41-2.32,1.76-5.29,2.64-8.91,2.64-4.55,0-8.16-1.4-10.83-4.2s-4-6.73-4-11.79,1.35-9.3,4.04-12.19,6.19-4.34,10.49-4.34,7.56,1.42,10.2,4.25,3.96,6.82,3.96,11.95c0,.31-.01.78-.03,1.41h-23.2c.19,3.42,1.16,6.04,2.9,7.85,1.74,1.82,3.91,2.72,6.5,2.72,1.93,0,3.58-.51,4.95-1.52,1.37-1.02,2.45-2.64,3.25-4.86ZM673.49,371.84h17.37c-.23-2.62-.9-4.58-1.99-5.89-1.68-2.03-3.86-3.05-6.53-3.05-2.42,0-4.46.81-6.11,2.43-1.65,1.62-2.56,3.79-2.74,6.5Z"/>
    <path class="st5" d="M723.18,378.99l5.19.67c-.57,3.57-2.02,6.37-4.35,8.39s-5.2,3.03-8.6,3.03c-4.26,0-7.68-1.39-10.27-4.17-2.59-2.78-3.88-6.77-3.88-11.97,0-3.36.56-6.3,1.67-8.82s2.81-4.41,5.08-5.67,4.75-1.89,7.43-1.89c3.38,0,6.14.85,8.29,2.56s3.53,4.14,4.13,7.28l-5.13.79c-.49-2.09-1.35-3.66-2.59-4.72s-2.74-1.58-4.5-1.58c-2.66,0-4.81.95-6.47,2.86s-2.49,4.92-2.49,9.04.8,7.22,2.4,9.11,3.69,2.84,6.27,2.84c2.07,0,3.8-.63,5.19-1.9s2.27-3.22,2.64-5.86Z"/>
    <path class="st5" d="M732.88,390.39v-42.95h5.27v15.41c2.46-2.85,5.57-4.28,9.32-4.28,2.3,0,4.31.45,6.01,1.36s2.92,2.16,3.65,3.76,1.1,3.93,1.1,6.97v19.72h-5.27v-19.72c0-2.64-.57-4.56-1.71-5.76s-2.76-1.8-4.85-1.8c-1.56,0-3.03.41-4.41,1.22s-2.36,1.91-2.94,3.3-.88,3.3-.88,5.74v17.02h-5.27Z"/>
    <path class="st5" d="M780.81,381.1l5.21-.82c.29,2.09,1.11,3.69,2.45,4.8s3.21,1.67,5.61,1.67,4.22-.49,5.39-1.48,1.76-2.14,1.76-3.47c0-1.19-.52-2.13-1.55-2.81-.72-.47-2.52-1.06-5.39-1.79-3.87-.98-6.55-1.82-8.04-2.53s-2.63-1.7-3.4-2.96-1.16-2.65-1.16-4.17c0-1.39.32-2.67.95-3.85s1.5-2.16,2.59-2.94c.82-.61,1.94-1.12,3.35-1.54s2.93-.63,4.56-.63c2.44,0,4.58.35,6.43,1.05s3.21,1.66,4.09,2.86,1.48,2.81,1.82,4.82l-5.16.7c-.23-1.6-.91-2.85-2.04-3.75s-2.71-1.35-4.76-1.35c-2.42,0-4.15.4-5.19,1.2s-1.55,1.74-1.55,2.81c0,.68.21,1.3.64,1.85.43.57,1.1,1.04,2.02,1.41.53.2,2.08.64,4.66,1.35,3.73,1,6.33,1.81,7.81,2.45s2.63,1.56,3.47,2.77,1.26,2.71,1.26,4.51-.51,3.41-1.54,4.97-2.5,2.75-4.44,3.6-4.12,1.27-6.56,1.27c-4.04,0-7.12-.84-9.24-2.52s-3.47-4.17-4.06-7.47Z"/>
    <path class="st5" d="M824.43,385.67l.76,4.66c-1.48.31-2.81.47-3.98.47-1.91,0-3.4-.3-4.45-.91s-1.8-1.4-2.23-2.39-.64-3.06-.64-6.23v-17.9h-3.87v-4.1h3.87v-7.71l5.24-3.16v10.87h5.3v4.1h-5.3v18.19c0,1.5.09,2.47.28,2.9s.49.77.91,1.03,1.02.38,1.8.38c.59,0,1.36-.07,2.31-.21Z"/>
    <path class="st5" d="M849.89,386.55c-1.95,1.66-3.83,2.83-5.64,3.52s-3.75,1.03-5.82,1.03c-3.42,0-6.04-.83-7.88-2.5s-2.75-3.8-2.75-6.4c0-1.52.35-2.92,1.04-4.17s1.6-2.27,2.72-3.03,2.39-1.34,3.79-1.73c1.04-.27,2.6-.54,4.69-.79,4.26-.51,7.39-1.11,9.4-1.82.02-.72.03-1.18.03-1.38,0-2.15-.5-3.66-1.49-4.54-1.35-1.19-3.35-1.79-6.01-1.79-2.48,0-4.31.43-5.49,1.3s-2.06,2.41-2.62,4.61l-5.16-.7c.47-2.21,1.24-3.99,2.31-5.35s2.63-2.4,4.66-3.13,4.38-1.1,7.06-1.1,4.81.31,6.47.94,2.88,1.41,3.66,2.36,1.33,2.14,1.64,3.59c.18.9.26,2.52.26,4.86v7.03c0,4.9.11,8,.34,9.3s.67,2.54,1.33,3.74h-5.51c-.55-1.09-.9-2.37-1.05-3.84ZM849.45,374.77c-1.91.78-4.79,1.45-8.61,1.99-2.17.31-3.7.66-4.6,1.05s-1.59.96-2.08,1.71-.73,1.59-.73,2.5c0,1.41.53,2.58,1.6,3.52s2.62,1.41,4.67,1.41,3.84-.44,5.42-1.33,2.74-2.1,3.49-3.65c.57-1.19.85-2.95.85-5.27v-1.93Z"/>
    <path class="st5" d="M883.26,378.99l5.19.67c-.57,3.57-2.02,6.37-4.35,8.39s-5.2,3.03-8.6,3.03c-4.26,0-7.68-1.39-10.27-4.17s-3.88-6.77-3.88-11.97c0-3.36.56-6.3,1.67-8.82s2.81-4.41,5.08-5.67,4.75-1.89,7.43-1.89c3.38,0,6.14.85,8.29,2.56s3.53,4.14,4.13,7.28l-5.13.79c-.49-2.09-1.35-3.66-2.59-4.72s-2.74-1.58-4.5-1.58c-2.66,0-4.81.95-6.47,2.86s-2.49,4.92-2.49,9.04.8,7.22,2.4,9.11,3.69,2.84,6.27,2.84c2.07,0,3.8-.63,5.19-1.9s2.27-3.22,2.64-5.86Z"/>
    <path class="st5" d="M892.98,390.39v-42.95h5.27v24.49l12.48-12.66h6.83l-11.89,11.54,13.1,19.57h-6.5l-10.28-15.91-3.72,3.57v12.33h-5.27Z"/>
  </g>
  <g>
    <path class="st5" d="M80,545.46v-11.2h1.7v1.57c.35-.55.82-.99,1.4-1.32.58-.33,1.25-.5,1.99-.5.83,0,1.51.17,2.04.52.53.34.9.83,1.12,1.44.89-1.31,2.04-1.96,3.46-1.96,1.11,0,1.96.31,2.56.92.6.61.9,1.56.9,2.84v7.69h-1.89v-7.05c0-.76-.06-1.31-.18-1.64s-.35-.6-.67-.81c-.32-.2-.7-.31-1.14-.31-.79,0-1.44.26-1.96.79-.52.52-.78,1.36-.78,2.52v6.5h-1.9v-7.27c0-.84-.16-1.48-.46-1.9-.31-.42-.82-.63-1.52-.63-.53,0-1.03.14-1.48.42-.45.28-.78.69-.99,1.23-.2.54-.31,1.32-.31,2.34v5.81h-1.9Z"/>
    <path class="st5" d="M97.9,549.77l-.21-1.78c.41.11.78.17,1.09.17.42,0,.76-.07,1.01-.21s.46-.34.62-.59c.12-.19.31-.66.58-1.41.04-.11.09-.26.17-.46l-4.25-11.22h2.05l2.33,6.48c.3.82.57,1.69.81,2.59.22-.87.48-1.72.78-2.55l2.39-6.53h1.9l-4.26,11.39c-.46,1.23-.81,2.08-1.07,2.54-.34.62-.72,1.08-1.16,1.38-.44.29-.96.44-1.56.44-.37,0-.77-.08-1.22-.23Z"/>
    <path class="st5" d="M108.04,540.82v-1.91h5.83v1.91h-5.83Z"/>
    <path class="st5" d="M118.04,545.46l-3.43-11.2h1.96l1.78,6.46.66,2.4c.03-.12.22-.89.58-2.31l1.78-6.56h1.95l1.68,6.49.56,2.14.64-2.16,1.92-6.47h1.84l-3.5,11.2h-1.97l-1.78-6.71-.43-1.91-2.27,8.61h-1.98Z"/>
    <path class="st5" d="M131.56,545.46v-15.46h1.9v5.55c.89-1.03,2-1.54,3.35-1.54.83,0,1.55.16,2.16.49.61.33,1.05.78,1.31,1.35.26.58.39,1.41.39,2.51v7.09h-1.9v-7.09c0-.95-.21-1.64-.62-2.07-.41-.43-.99-.65-1.75-.65-.56,0-1.09.15-1.59.44-.5.29-.85.69-1.06,1.19-.21.5-.32,1.19-.32,2.07v6.12h-1.9Z"/>
    <path class="st5" d="M142.87,539.86c0-2.07.58-3.61,1.73-4.61.96-.83,2.14-1.24,3.52-1.24,1.54,0,2.8.5,3.77,1.51s1.47,2.4,1.47,4.18c0,1.44-.22,2.57-.65,3.4-.43.83-1.06,1.47-1.89,1.92-.83.46-1.73.68-2.7.68-1.57,0-2.83-.5-3.8-1.51-.97-1-1.45-2.45-1.45-4.34ZM144.82,539.86c0,1.43.31,2.51.94,3.22.62.71,1.41,1.07,2.36,1.07s1.72-.36,2.35-1.08.94-1.81.94-3.28c0-1.38-.31-2.43-.94-3.15-.63-.71-1.41-1.07-2.35-1.07s-1.74.35-2.36,1.06c-.63.71-.94,1.78-.94,3.22Z"/>
    <path class="st5" d="M155.59,532.18v-2.18h1.9v2.18h-1.9ZM155.59,545.46v-11.2h1.9v11.2h-1.9Z"/>
    <path class="st5" d="M159.62,542.11l1.88-.3c.1.75.4,1.33.88,1.73.48.4,1.15.6,2.02.6s1.52-.18,1.94-.53.63-.77.63-1.25c0-.43-.19-.77-.56-1.01-.26-.17-.91-.38-1.94-.64-1.39-.35-2.36-.66-2.89-.91-.54-.26-.95-.61-1.22-1.07-.28-.45-.42-.95-.42-1.5,0-.5.11-.96.34-1.39.23-.43.54-.78.93-1.06.3-.22.7-.4,1.21-.55.51-.15,1.06-.23,1.64-.23.88,0,1.65.13,2.31.38.66.25,1.15.6,1.47,1.03.32.43.53,1.01.65,1.73l-1.86.25c-.08-.58-.33-1.03-.73-1.35s-.98-.48-1.71-.48c-.87,0-1.49.14-1.87.43-.37.29-.56.62-.56,1.01,0,.25.08.47.23.66.15.2.4.37.73.51.19.07.75.23,1.68.48,1.34.36,2.28.65,2.81.88s.95.56,1.25,1,.45.98.45,1.62-.18,1.23-.55,1.79c-.37.56-.9.99-1.6,1.3-.7.31-1.48.46-2.36.46-1.46,0-2.56-.3-3.33-.91s-1.25-1.5-1.46-2.69Z"/>
    <path class="st5" d="M171.71,545.46v-2.16h2.16v2.16h-2.16Z"/>
    <path class="st5" d="M184.48,541.35l1.87.24c-.2,1.29-.73,2.29-1.57,3.02-.84.73-1.87,1.09-3.09,1.09-1.53,0-2.76-.5-3.7-1.5-.93-1-1.4-2.44-1.4-4.31,0-1.21.2-2.27.6-3.17s1.01-1.59,1.83-2.04c.82-.45,1.71-.68,2.67-.68,1.22,0,2.21.31,2.98.92s1.27,1.49,1.49,2.62l-1.85.28c-.18-.75-.49-1.32-.93-1.7-.45-.38-.99-.57-1.62-.57-.96,0-1.73.34-2.33,1.03-.6.68-.9,1.77-.9,3.25s.29,2.6.86,3.28c.58.68,1.33,1.02,2.26,1.02.74,0,1.37-.23,1.87-.68.5-.46.82-1.16.95-2.11Z"/>
    <path class="st5" d="M187.26,539.86c0-2.07.58-3.61,1.73-4.61.96-.83,2.14-1.24,3.52-1.24,1.54,0,2.8.5,3.78,1.51.98,1.01,1.47,2.4,1.47,4.18,0,1.44-.22,2.57-.65,3.4-.43.83-1.06,1.47-1.89,1.92-.82.46-1.73.68-2.7.68-1.57,0-2.83-.5-3.8-1.51-.97-1-1.45-2.45-1.45-4.34ZM189.21,539.86c0,1.43.31,2.51.94,3.22.63.71,1.41,1.07,2.36,1.07s1.73-.36,2.35-1.08.94-1.81.94-3.28c0-1.38-.31-2.43-.94-3.15-.63-.71-1.41-1.07-2.35-1.07s-1.74.35-2.36,1.06-.94,1.78-.94,3.22Z"/>
    <path class="st5" d="M199.98,545.46v-11.2h1.7v1.57c.35-.55.82-.99,1.4-1.32.58-.33,1.25-.5,1.99-.5.83,0,1.51.17,2.04.52.53.34.9.83,1.12,1.44.89-1.31,2.04-1.96,3.46-1.96,1.11,0,1.96.31,2.56.92.6.61.9,1.56.9,2.84v7.69h-1.89v-7.05c0-.76-.06-1.31-.18-1.64s-.35-.6-.67-.81c-.32-.2-.7-.31-1.14-.31-.79,0-1.44.26-1.96.79-.52.52-.78,1.36-.78,2.52v6.5h-1.9v-7.27c0-.84-.16-1.48-.46-1.9-.31-.42-.82-.63-1.52-.63-.53,0-1.03.14-1.48.42-.45.28-.78.69-.99,1.23-.2.54-.31,1.32-.31,2.34v5.81h-1.9Z"/>
  </g>
  <text class="st0" transform="translate(278.6 390.39)"><tspan x="0" y="0">age</tspan></text>
  <text class="st4" transform="translate(363.77 436.12)"><tspan x="0" y="0">Free - unlimited - works for .com, .io, .eu, .sh, .ai &amp; 1.000+ TLDs</tspan></text>
  <g>
    <path class="st5" d="M1031.69,545.52v-15.25h2.92v5.49c.9-1.03,1.97-1.54,3.2-1.54,1.35,0,2.46.49,3.34,1.46.88.98,1.32,2.37,1.32,4.2s-.45,3.34-1.35,4.36c-.9,1.02-1.99,1.53-3.27,1.53-.63,0-1.25-.16-1.87-.47s-1.14-.78-1.59-1.4v1.62h-2.72ZM1034.59,539.75c0,1.14.18,1.99.54,2.54.51.78,1.18,1.17,2.02,1.17.65,0,1.2-.28,1.65-.83.45-.55.68-1.42.68-2.61,0-1.26-.23-2.17-.69-2.73s-1.04-.84-1.76-.84-1.28.27-1.75.82c-.46.54-.7,1.37-.7,2.48Z"/>
    <path class="st5" d="M1043.44,534.46h3.11l2.64,7.85,2.58-7.85h3.03l-3.9,10.63-.7,1.93c-.26.65-.5,1.14-.73,1.48-.23.34-.5.62-.8.83s-.67.38-1.11.49c-.44.12-.94.18-1.49.18s-1.11-.06-1.65-.18l-.26-2.29c.46.09.87.14,1.24.14.68,0,1.18-.2,1.51-.6.33-.4.58-.91.75-1.52l-4.2-11.08Z"/>
    <path class="st1" d="M1061.32,534.46h1.62v-.83c0-.93.1-1.62.3-2.08s.56-.83,1.09-1.12,1.2-.43,2.01-.43,1.65.12,2.45.37l-.4,2.04c-.46-.11-.91-.17-1.34-.17s-.73.1-.91.3c-.18.2-.28.58-.28,1.14v.78h2.19v2.3h-2.19v8.75h-2.92v-8.75h-1.62v-2.3Z"/>
    <path class="st1" d="M1069.7,545.52v-15.25h2.92v15.25h-2.92Z"/>
    <path class="st1" d="M1085.67,545.52h-2.92v-5.64c0-1.19-.06-1.96-.19-2.32s-.33-.62-.61-.82-.62-.29-1.01-.29c-.51,0-.96.14-1.36.42-.4.28-.68.65-.83,1.1-.15.46-.22,1.3-.22,2.54v5.01h-2.92v-11.05h2.72v1.62c.96-1.25,2.18-1.87,3.64-1.87.65,0,1.24.12,1.77.35.53.23.94.53,1.21.89.27.36.47.77.57,1.23.11.46.16,1.11.16,1.97v6.87Z"/>
    <path class="st1" d="M1098.77,545.52h-2.72v-1.62c-.45.63-.98,1.1-1.6,1.41s-1.23.46-1.86.46c-1.27,0-2.36-.51-3.26-1.53s-1.36-2.45-1.36-4.28.44-3.3,1.32-4.27c.88-.98,1.99-1.46,3.34-1.46,1.24,0,2.3.51,3.2,1.54v-5.49h2.92v15.25ZM1090.97,539.75c0,1.18.16,2.03.49,2.56.47.76,1.13,1.14,1.98,1.14.67,0,1.25-.29,1.72-.86.47-.57.71-1.43.71-2.57,0-1.27-.23-2.18-.69-2.74s-1.04-.84-1.76-.84-1.27.28-1.74.83-.7,1.37-.7,2.47Z"/>
    <path class="st1" d="M1104.45,545.52h-2.92v-11.05h2.72v1.57c.47-.74.88-1.23,1.25-1.47.37-.24.79-.35,1.26-.35.67,0,1.31.18,1.93.55l-.91,2.55c-.49-.32-.95-.48-1.37-.48s-.76.11-1.04.34c-.28.23-.51.63-.67,1.22-.16.59-.24,1.83-.24,3.7v3.41Z"/>
    <path class="st1" d="M1120,545.52h-2.92v-5.64c0-1.19-.06-1.96-.19-2.32s-.33-.62-.61-.82-.62-.29-1.01-.29c-.51,0-.96.14-1.36.42-.4.28-.68.65-.83,1.1-.15.46-.22,1.3-.22,2.54v5.01h-2.92v-11.05h2.72v1.62c.96-1.25,2.18-1.87,3.64-1.87.65,0,1.24.12,1.77.35.53.23.94.53,1.21.89.27.36.47.77.57,1.23.11.46.16,1.11.16,1.97v6.87Z"/>
  </g>
</svg>